<?xml version="1.0" encoding="utf-8"?>
<!-- Generator: Adobe Illustrator 27.1.1, SVG Export Plug-In . SVG Version: 6.00 Build 0)  -->
<svg version="1.1" id="Layer_1" xmlns="http://www.w3.org/2000/svg" xmlns:xlink="http://www.w3.org/1999/xlink" x="0px" y="0px"
	 viewBox="0 0 1650.17 756.78" style="enable-background:new 0 0 1650.17 756.78;" xml:space="preserve">
<style type="text/css">
	.st0{fill:#F16267;}
	.st1{fill:url(#SVGID_1_);}
	.st2{fill:url(#SVGID_00000057106528171638293960000002931742278245431457_);}
</style>
<g>
	<g>
		<path class="st0" d="M286.86,546.67H105.82V224.99c0-11.26-3.93-20.9-11.69-28.65c-7.76-7.76-17.4-11.7-28.65-11.7
			c-10.9,0-20.36,3.94-28.12,11.69c-7.76,7.76-11.7,17.4-11.7,28.66v362.03c0,11.17,3.79,20.76,11.27,28.5
			c7.6,7.86,17.2,11.85,28.54,11.85h221.39c11.25,0,20.89-3.93,28.66-11.7c7.76-7.76,11.69-17.4,11.69-28.65
			c0-11.25-3.93-20.89-11.7-28.66C307.75,550.61,298.11,546.67,286.86,546.67z"/>
		<path class="st0" d="M408.79,309.78c-11.17,0-20.67,3.7-28.24,11.01c-7.68,7.43-11.58,17.12-11.58,28.8v237.97
			c0,11.27,3.84,20.82,11.42,28.38c7.57,7.59,17.13,11.44,28.4,11.44c11.69,0,21.38-3.9,28.8-11.58
			c7.31-7.56,11.01-17.06,11.01-28.23V349.59c0-11.6-3.76-21.24-11.17-28.66C430.02,313.53,420.39,309.78,408.79,309.78z"/>
		<path class="st0" d="M662.26,548.81h-18.18c-7.61,0-13.7-3.12-19.15-9.82c-6.02-7.38-8.95-16.51-8.95-27.9V391.54h32.91
			c10.7,0,19.68-3.28,26.7-9.75c7.18-6.64,10.98-15.37,10.98-25.25c0-10.58-3.8-19.69-10.99-26.33c-7.01-6.46-15.99-9.74-26.69-9.74
			h-32.91v-64.47c0-11.24-3.76-20.7-11.17-28.13c-7.41-7.4-16.87-11.15-28.11-11.15c-11.26,0-20.72,3.76-28.12,11.16
			c-7.41,7.4-11.16,16.86-11.16,28.12v64.47h-12.06c-10.71,0-19.69,3.28-26.68,9.74c-7.19,6.63-10.99,15.74-10.99,26.33
			c0,9.89,3.8,18.63,10.98,25.25c7,6.47,15.98,9.75,26.69,9.75h12.06v119.54c0,21.58,4.62,41.34,13.72,58.75
			c9.18,17.58,21.99,31.68,38.07,41.93c16.23,10.35,34.69,15.6,54.87,15.6h9.63c12.29,0,22.67-3.52,30.84-10.46
			c8.67-7.35,13.25-17.32,13.25-28.82c0-10.96-3.32-20.25-9.88-27.62C681.09,552.85,672.22,548.81,662.26,548.81z"/>
		<path class="st0" d="M1040.14,246.91C1040.14,246.91,1040.14,246.91,1040.14,246.91c-19.66-19.85-43.12-35.36-69.72-46.12
			c-26.52-10.72-56.26-16.15-88.39-16.15h-96.79c-11.16,0-20.75,3.8-28.51,11.28c-7.86,7.6-11.84,17.38-11.84,29.07v362.03
			c0,11.25,3.93,20.89,11.7,28.66c7.76,7.76,17.4,11.69,28.65,11.69h96.79c32.13,0,61.87-5.43,88.39-16.15
			c26.6-10.76,50.06-26.27,69.72-46.12c19.66-19.86,34.99-43.6,45.54-70.56c10.51-26.84,15.84-56.71,15.84-88.8
			c0-32.08-5.33-61.87-15.85-88.56C1075.12,290.4,1059.8,266.76,1040.14,246.91z M1022.97,405.74c0,28.73-6.14,54.5-18.24,76.59
			c-12.04,21.97-28.77,39.45-49.71,51.95c-20.91,12.48-45.47,18.81-72.98,18.81h-56.44V258.92h56.44c27.54,0,52.11,6.25,73.04,18.58
			c20.92,12.34,37.63,29.63,49.66,51.41C1016.84,350.82,1022.97,376.67,1022.97,405.74z"/>
		<path class="st0" d="M1203.42,309.78c-11.17,0-20.67,3.7-28.24,11.01c-7.68,7.43-11.58,17.12-11.58,28.8v237.97
			c0,11.27,3.84,20.82,11.42,28.38c7.57,7.59,17.13,11.44,28.4,11.44c11.69,0,21.38-3.9,28.8-11.58
			c7.31-7.56,11.01-17.06,11.01-28.23V349.59c0-11.6-3.76-21.24-11.17-28.66C1224.66,313.53,1215.02,309.78,1203.42,309.78z"/>
		<path class="st0" d="M1624.37,461.02c-1.07-28.14-7.95-53.59-20.48-75.65c-13.72-24.15-32.84-43.36-56.81-57.1
			c-23.94-13.69-51.58-20.64-82.17-20.64c-30.95,0-58.77,6.94-82.7,20.64c-23.98,13.73-43.1,32.94-56.81,57.1
			c-13.68,24.09-20.62,52.17-20.62,83.47c0,30.81,6.42,58.6,19.1,82.59c12.77,24.2,30.57,43.45,52.9,57.22
			c22.41,13.84,48.47,20.86,77.45,20.86c27.01,0,51.31-7.1,72.22-21.11c7.22-4.83,13.99-10.39,20.2-16.58
			c-1.14,16.17-4.82,30.17-10.97,41.7c-7.38,13.83-17.34,24.38-29.62,31.36c-12.47,7.08-26.31,10.66-41.14,10.66
			c-16.61,0-31.57-3.03-44.46-9c-12.75-5.91-23.4-14.17-31.6-24.49c-6.16-8.22-14.36-13.42-24.36-15.46
			c-10.33-2.11-20.3-0.03-29.68,6.23c-8.49,5.83-13.75,13.71-15.63,23.44c-1.97,10.06,0.57,19.78,7.57,28.93
			c16.5,20.73,36.96,36.71,60.8,47.47c23.65,10.67,49.31,16.08,76.28,16.08c31.42,0,59.61-7.45,83.79-22.15
			c24.09-14.66,43.15-34.69,56.64-59.55c13.43-24.75,20.23-52.58,20.23-82.72V461.96C1624.51,461.64,1624.46,461.32,1624.37,461.02z
			 M1547.02,468.84c0,17.43-3.55,32.89-10.54,45.95c-6.9,12.87-16.59,23.12-28.82,30.46c-12.22,7.33-26.6,11.05-42.74,11.05
			c-16.15,0-30.53-3.72-42.74-11.05c-12.26-7.36-22.07-17.64-29.14-30.56c-7.14-13.03-10.76-28.45-10.76-45.85
			c0-17.41,3.63-32.95,10.79-46.17c7.08-13.08,16.87-23.43,29.11-30.77c12.21-7.33,26.59-11.05,42.74-11.05
			c16.15,0,30.53,3.72,42.74,11.05c12.2,7.32,21.89,17.65,28.79,30.68C1543.46,435.83,1547.02,451.39,1547.02,468.84z"/>
	</g>
	<g>
		<linearGradient id="SVGID_1_" gradientUnits="userSpaceOnUse" x1="367.6348" y1="251.4124" x2="745.3328" y2="-65.5139">
			<stop  offset="0.3379" style="stop-color:#77C47C"/>
			<stop  offset="0.3436" style="stop-color:#75BF83"/>
			<stop  offset="0.3541" style="stop-color:#6EB795"/>
			<stop  offset="0.3681" style="stop-color:#62AAB0"/>
			<stop  offset="0.3843" style="stop-color:#5098CC"/>
			<stop  offset="0.5101" style="stop-color:#4D96D1"/>
			<stop  offset="0.7008" style="stop-color:#5197CF"/>
			<stop  offset="0.7907" style="stop-color:#5B9ACC"/>
			<stop  offset="0.8211" style="stop-color:#619BCA"/>
		</linearGradient>
		<path class="st1" d="M807.03,8.01c-115.52,0-223.78,29.02-306.02,79.34c-6.87,4.22-13.51,8.54-19.99,13.02l-0.03,0.03
			c-2.13,1.48-4.22,2.97-6.32,4.45c0,0,0,0.03-0.03,0.03c-5.45,3.03-11.48,4.51-18.12,4.42c-5.06-0.1-9.77-1.06-14.09-2.97
			c-0.16-0.06-0.32-0.13-0.48-0.23c-2.35-1.06-4.71-1.97-7.12-2.74c-7.58-2.48-15.57-3.77-24.02-3.9
			c-20.99-0.29-39.56,6.77-55.71,21.09c-16.18,14.41-24.44,32.98-24.76,55.78c-0.32,21.89,7.16,40.94,22.44,57.1
			c15.25,16.22,33.85,24.44,55.74,24.76c21.89,0.32,40.72-7.38,56.45-23.12s23.76-34.56,24.08-56.45c0.1-6.48-0.45-12.64-1.71-18.44
			c-0.64-3.06-1.42-6.03-2.42-8.93c-0.13-0.39-0.29-0.77-0.42-1.16c-1.26-3.77-1.84-7.87-1.77-12.61
			c0.16-10.77,4.03-19.54,11.67-26.34c1.1-0.97,2.19-1.84,3.32-2.68c1.06-0.68,2.1-1.39,3.16-2.06c0.06-0.03,0.13-0.1,0.19-0.13
			l6.58-4.16c79.86-49.46,185.9-77.99,299.38-77.99V8.01z"/>
		
			<linearGradient id="SVGID_00000006685330212035221520000003872413976710087088_" gradientUnits="userSpaceOnUse" x1="868.7007" y1="-65.4803" x2="1246.3644" y2="251.4171">
			<stop  offset="0.0622" style="stop-color:#5098CC"/>
			<stop  offset="0.6285" style="stop-color:#4D96D1"/>
			<stop  offset="0.6464" style="stop-color:#B0BBA7"/>
			<stop  offset="0.6607" style="stop-color:#F9E077"/>
		</linearGradient>
		<path style="fill:url(#SVGID_00000006685330212035221520000003872413976710087088_);" d="M807.03,24.13
			c116.48,0,225.1,30.05,305.6,81.95v0.1c0.35,0.19,0.71,0.39,1.06,0.61c0.35,0.23,0.68,0.45,1.03,0.68c0.48,0.32,1,0.64,1.48,1
			c1.48,1.06,2.9,2.29,4.32,3.58c7.45,7,11.09,15.89,10.93,26.63c-0.06,3.35-0.48,6.61-1.32,9.67c0,0.03-0.03,0.06-0.06,0.13
			c-0.61,1.58-1.19,3.22-1.71,4.87c0,0.03,0,0.03-0.03,0.06c-1.13,3.84-2,7.83-2.58,11.99c-0.55,3.9-0.81,7.93-0.81,12.09
			c0,21.89,7.74,40.82,23.24,56.77c15.51,15.96,34.21,23.92,56.1,23.92s40.62-7.96,56.13-23.92c15.51-15.96,23.24-34.88,23.24-56.77
			c0-22.79-7.96-41.49-23.95-56.13c-15.93-14.57-34.43-21.89-55.42-21.89c-6.51,0-12.77,0.71-18.8,2.13
			c-3.58,0.81-7.06,1.9-10.48,3.22c-0.03,0-0.03,0.03-0.06,0.03c-1.93,0.74-3.84,1.58-5.67,2.51c-0.03,0-0.06,0.03-0.1,0.03
			c-3.84,1.29-7.96,1.9-12.32,1.84c-6.77-0.1-13.22-1.9-18.67-5.22c-0.03,0-0.03,0-0.06-0.03c-0.93-0.58-1.84-1.19-2.68-1.87
			c-4.61-3.29-9.35-6.45-14.15-9.54C1038.13,39.03,926.48,8.01,807.03,8.01V24.13z"/>
	</g>
</g>
</svg>
