<svg width="63" height="34" viewBox="0 0 63 34" fill="none" xmlns="http://www.w3.org/2000/svg">
<g filter="url(#filter0_d_194_914)">
<rect x="6" y="2" width="51" height="23" rx="11.5" fill="#F96167"/>
<rect x="6.5" y="2.5" width="50" height="22" rx="11" stroke="#F96167"/>
</g>
<circle cx="21.5" cy="18.5" r="3" fill="#FFFFFF" stroke="#FFFFFF"/>
<circle cx="32" cy="8" r="3" fill="#FFFFFF"/>
<circle cx="42.5" cy="18.5" r="3" fill="#F96167" stroke="#FFFFFF"/>
<line x1="24" y1="18.5" x2="40" y2="18.5" stroke="#FFFFFF"/>
<path d="M31.6464 18.3536C31.8417 18.5488 32.1583 18.5488 32.3536 18.3536L35.5355 15.1716C35.7308 14.9763 35.7308 14.6597 35.5355 14.4645C35.3403 14.2692 35.0237 14.2692 34.8284 14.4645L32 17.2929L29.1716 14.4645C28.9763 14.2692 28.6597 14.2692 28.4645 14.4645C28.2692 14.6597 28.2692 14.9763 28.4645 15.1716L31.6464 18.3536ZM31.5 10V18H32.5V10H31.5Z" fill="#FFFFFF"/>
<defs>
<filter id="filter0_d_194_914" x="0.5" y="0" width="62" height="34" filterUnits="userSpaceOnUse" color-interpolation-filters="sRGB">
<feFlood flood-opacity="0" result="BackgroundImageFix"/>
<feColorMatrix in="SourceAlpha" type="matrix" values="0 0 0 0 0 0 0 0 0 0 0 0 0 0 0 0 0 0 127 0" result="hardAlpha"/>
<feOffset dy="3.5"/>
<feGaussianBlur stdDeviation="2.75"/>
<feComposite in2="hardAlpha" operator="out"/>
<feColorMatrix type="matrix" values="0 0 0 0 0 0 0 0 0 0 0 0 0 0 0 0 0 0 0.02 0"/>
<feBlend mode="normal" in2="BackgroundImageFix" result="effect1_dropShadow_194_914"/>
<feBlend mode="normal" in="SourceGraphic" in2="effect1_dropShadow_194_914" result="shape"/>
</filter>
</defs>
</svg>
