<svg width="51" height="23" viewBox="0 0 51 23" fill="none" xmlns="http://www.w3.org/2000/svg">
<rect x="0.5" y="0.5" width="50" height="22" rx="3.5" fill="white" stroke="#666666"/>
<circle cx="15.5" cy="16.5" r="3" fill="#666666" stroke="#666666"/>
<circle cx="26" cy="6" r="3" fill="#666666"/>
<circle cx="36.5" cy="16.5" r="3" stroke="#666666"/>
<line x1="18" y1="16.5" x2="34" y2="16.5" stroke="#666666"/>
<path d="M25.6464 16.3536C25.8417 16.5488 26.1583 16.5488 26.3536 16.3536L29.5355 13.1716C29.7308 12.9763 29.7308 12.6597 29.5355 12.4645C29.3403 12.2692 29.0237 12.2692 28.8284 12.4645L26 15.2929L23.1716 12.4645C22.9763 12.2692 22.6597 12.2692 22.4645 12.4645C22.2692 12.6597 22.2692 12.9763 22.4645 13.1716L25.6464 16.3536ZM25.5 8V16H26.5V8H25.5Z" fill="#666666"/>
</svg>
