<svg width="50" height="30" viewBox="0 0 50 30" fill="none" xmlns="http://www.w3.org/2000/svg">
<rect x="0.5" y="0.5" width="49" height="29" rx="14.5" fill="#FFFFFF" stroke="#F96167"/>
<circle cx="14.5" cy="21.5" r="3" stroke="#F96167"/>
<circle cx="25" cy="8" r="3" fill="#F96167"/>
<circle cx="35.5" cy="21.5" r="3" stroke="#F96167"/>
<line x1="17" y1="21.5" x2="33" y2="21.5" stroke="#F96167"/>
<path d="M24.6464 21.3536C24.8417 21.5488 25.1583 21.5488 25.3536 21.3536L28.5355 18.1716C28.7308 17.9763 28.7308 17.6597 28.5355 17.4645C28.3403 17.2692 28.0237 17.2692 27.8284 17.4645L25 20.2929L22.1716 17.4645C21.9763 17.2692 21.6597 17.2692 21.4645 17.4645C21.2692 17.6597 21.2692 17.9763 21.4645 18.1716L24.6464 21.3536ZM24.5 11V21H25.5V11H24.5Z" fill="#F96167"/>
</svg>
