<?xml version="1.0" encoding="UTF-8" standalone="no" ?>
<!DOCTYPE svg PUBLIC "-//W3C//DTD SVG 1.1//EN" "http://www.w3.org/Graphics/SVG/1.1/DTD/svg11.dtd">
<svg xmlns="http://www.w3.org/2000/svg" xmlns:xlink="http://www.w3.org/1999/xlink" version="1.1" width="1000" height="650" viewBox="0 0 1000 650" xml:space="preserve">
<desc>Created with Fabric.js 4.6.0</desc>
<defs>
</defs>
<g transform="matrix(1 0 0 1 339.36 414.09)" id="gDe5uR6uAkB1yEL5xE6cl"  >
<path style="stroke: none; stroke-width: 1; stroke-dasharray: none; stroke-linecap: butt; stroke-dashoffset: 0; stroke-linejoin: miter; stroke-miterlimit: 4; fill: rgb(241,98,103); fill-rule: nonzero; opacity: 1;" vector-effect="non-scaling-stroke"  transform=" translate(-351.36, -1027.62)" d="M 461.78 1168.28 L 280.74 1168.28 L 280.74 846.6 C 280.74 835.34 276.81 825.7 269.05 817.95 C 261.29 810.19 251.65 806.25 240.4 806.25 C 229.5 806.25 220.04000000000002 810.19 212.28 817.94 C 204.52 825.7 200.58 835.34 200.58 846.6 L 200.58 1208.63 C 200.58 1219.8000000000002 204.37 1229.39 211.85000000000002 1237.13 C 219.45000000000002 1244.99 229.05 1248.98 240.39000000000001 1248.98 L 461.78 1248.98 C 473.03 1248.98 482.66999999999996 1245.05 490.44 1237.28 C 498.2 1229.52 502.13 1219.8799999999999 502.13 1208.6299999999999 C 502.13 1197.3799999999999 498.2 1187.7399999999998 490.43 1179.9699999999998 C 482.67 1172.22 473.03 1168.28 461.78 1168.28 z" stroke-linecap="round" />
</g>
<g transform="matrix(1 0 0 1 713.12 414.09)" id="4cG-exmg_Kg41FprPJIaH"  >
<path style="stroke: none; stroke-width: 1; stroke-dasharray: none; stroke-linecap: butt; stroke-dashoffset: 0; stroke-linejoin: miter; stroke-miterlimit: 4; fill: rgb(241,98,103); fill-rule: nonzero; opacity: 1;" vector-effect="non-scaling-stroke"  transform=" translate(-1098.12, -1027.62)" d="M 1215.06 868.52 C 1215.06 868.52 1215.06 868.52 1215.06 868.52 C 1195.3999999999999 848.67 1171.94 833.16 1145.34 822.4 C 1118.82 811.68 1089.08 806.25 1056.9499999999998 806.25 L 960.1599999999999 806.25 C 948.9999999999999 806.25 939.4099999999999 810.05 931.6499999999999 817.53 C 923.7899999999998 825.13 919.8099999999998 834.91 919.8099999999998 846.6 L 919.8099999999998 1208.63 C 919.8099999999998 1219.88 923.7399999999998 1229.5200000000002 931.5099999999999 1237.2900000000002 C 939.2699999999999 1245.0500000000002 948.9099999999999 1248.9800000000002 960.1599999999999 1248.9800000000002 L 1056.9499999999998 1248.9800000000002 C 1089.08 1248.9800000000002 1118.8199999999997 1243.5500000000002 1145.34 1232.8300000000002 C 1171.9399999999998 1222.0700000000002 1195.3999999999999 1206.5600000000002 1215.06 1186.7100000000003 C 1234.72 1166.8500000000004 1250.05 1143.1100000000004 1260.6 1116.1500000000003 C 1271.11 1089.3100000000004 1276.4399999999998 1059.4400000000003 1276.4399999999998 1027.3500000000004 C 1276.4399999999998 995.2700000000003 1271.11 965.4800000000004 1260.59 938.7900000000004 C 1250.03 912.01 1234.71 888.37 1215.06 868.52 z M 1197.88 1027.35 C 1197.88 1056.08 1191.74 1081.85 1179.64 1103.9399999999998 C 1167.6000000000001 1125.9099999999999 1150.8700000000001 1143.3899999999999 1129.93 1155.8899999999999 C 1109.02 1168.37 1084.46 1174.6999999999998 1056.95 1174.6999999999998 L 1000.51 1174.6999999999998 L 1000.51 880.53 L 1056.95 880.53 C 1084.49 880.53 1109.06 886.78 1129.99 899.11 C 1150.91 911.45 1167.6200000000001 928.74 1179.65 950.52 C 1191.75 972.43 1197.88 998.28 1197.88 1027.35 z" stroke-linecap="round" />
</g>
<g transform="matrix(1 0 0 1 259.6 141.19)" id="va8yCu0M1GeIEzsF4ZPtB"  >
<linearGradient id="SVGID_0" gradientUnits="userSpaceOnUse" gradientTransform="matrix(1 0 0 1 0 0)"  x1="542.5497" y1="873.0231" x2="920.2477" y2="556.0968">
<stop offset="33.79%" style="stop-color:rgb(119,196,124);stop-opacity: 1"/>
<stop offset="34.36%" style="stop-color:rgb(117,191,131);stop-opacity: 1"/>
<stop offset="35.410000000000004%" style="stop-color:rgb(110,183,149);stop-opacity: 1"/>
<stop offset="36.809999999999995%" style="stop-color:rgb(98,170,176);stop-opacity: 1"/>
<stop offset="38.43%" style="stop-color:rgb(80,152,204);stop-opacity: 1"/>
<stop offset="51.01%" style="stop-color:rgb(77,150,209);stop-opacity: 1"/>
<stop offset="70.08%" style="stop-color:rgb(81,151,207);stop-opacity: 1"/>
<stop offset="79.07%" style="stop-color:rgb(91,154,204);stop-opacity: 1"/>
<stop offset="82.11%" style="stop-color:rgb(97,155,202);stop-opacity: 1"/>
</linearGradient>
<path style="stroke: none; stroke-width: 1; stroke-dasharray: none; stroke-linecap: butt; stroke-dashoffset: 0; stroke-linejoin: miter; stroke-miterlimit: 4; fill: url(#SVGID_0); fill-rule: nonzero; opacity: 1;" vector-effect="non-scaling-stroke"  transform=" translate(-743.6, -754.72)" d="M 981.95 629.63 C 866.4300000000001 629.63 758.1700000000001 658.65 675.9300000000001 708.97 C 669.0600000000001 713.19 662.4200000000001 717.51 655.94 721.99 L 655.9100000000001 722.02 C 653.7800000000001 723.5 651.69 724.99 649.59 726.47 C 649.59 726.47 649.59 726.5 649.5600000000001 726.5 C 644.11 729.53 638.08 731.01 631.44 730.92 C 626.3800000000001 730.8199999999999 621.6700000000001 729.86 617.35 727.9499999999999 C 617.19 727.89 617.03 727.8199999999999 616.87 727.7199999999999 C 614.52 726.66 612.16 725.7499999999999 609.75 724.9799999999999 C 602.17 722.4999999999999 594.18 721.2099999999999 585.73 721.0799999999999 C 564.74 720.79 546.1700000000001 727.8499999999999 530.02 742.17 C 513.84 756.5799999999999 505.58 775.15 505.26 797.9499999999999 C 504.94 819.8399999999999 512.42 838.8899999999999 527.7 855.05 C 542.95 871.27 561.5500000000001 879.49 583.44 879.81 C 605.33 880.13 624.1600000000001 872.43 639.8900000000001 856.6899999999999 C 655.6200000000001 840.9499999999999 663.6500000000001 822.1299999999999 663.9700000000001 800.2399999999999 C 664.0700000000002 793.7599999999999 663.5200000000001 787.5999999999999 662.2600000000001 781.7999999999998 C 661.6200000000001 778.7399999999999 660.8400000000001 775.7699999999999 659.8400000000001 772.8699999999999 C 659.7100000000002 772.4799999999999 659.5500000000002 772.0999999999999 659.4200000000002 771.7099999999999 C 658.1600000000002 767.9399999999999 657.5800000000002 763.8399999999999 657.6500000000002 759.0999999999999 C 657.8100000000002 748.3299999999999 661.6800000000002 739.56 669.3200000000002 732.7599999999999 C 670.4200000000002 731.7899999999998 671.5100000000002 730.9199999999998 672.6400000000002 730.0799999999999 C 673.7000000000002 729.4 674.7400000000002 728.6899999999999 675.8000000000002 728.02 C 675.8600000000001 727.99 675.9300000000002 727.92 675.9900000000002 727.89 L 682.5700000000003 723.73 C 762.4300000000003 674.27 868.4700000000003 645.74 981.9500000000003 645.74 L 981.9500000000003 629.63 z" stroke-linecap="round" />
</g>
<g transform="matrix(1 0 0 1 736.26 141.18)" id="coNGkz2A0xmPZWMTDK0Qe"  >
<linearGradient id="SVGID_1" gradientUnits="userSpaceOnUse" gradientTransform="matrix(1 0 0 1 0 0)"  x1="1043.6156" y1="556.1304" x2="1421.2793" y2="873.0278">
<stop offset="6.22%" style="stop-color:rgb(80,152,204);stop-opacity: 1"/>
<stop offset="62.849999999999994%" style="stop-color:rgb(77,150,209);stop-opacity: 1"/>
<stop offset="64.64%" style="stop-color:rgb(176,187,167);stop-opacity: 1"/>
<stop offset="66.07%" style="stop-color:rgb(249,224,119);stop-opacity: 1"/>
</linearGradient>
<path style="stroke: none; stroke-width: 1; stroke-dasharray: none; stroke-linecap: butt; stroke-dashoffset: 0; stroke-linejoin: miter; stroke-miterlimit: 4; fill: url(#SVGID_1); fill-rule: nonzero; opacity: 1;" vector-effect="non-scaling-stroke"  transform=" translate(-1220.26, -754.71)" d="M 981.95 645.75 C 1098.43 645.75 1207.05 675.8 1287.5500000000002 727.7 L 1287.5500000000002 727.8000000000001 C 1287.9 727.9900000000001 1288.2600000000002 728.19 1288.6100000000001 728.4100000000001 C 1288.96 728.6400000000001 1289.2900000000002 728.8600000000001 1289.64 729.09 C 1290.1200000000001 729.4100000000001 1290.64 729.73 1291.1200000000001 730.09 C 1292.6000000000001 731.15 1294.0200000000002 732.38 1295.44 733.6700000000001 C 1302.89 740.6700000000001 1306.53 749.5600000000001 1306.3700000000001 760.3000000000001 C 1306.3100000000002 763.6500000000001 1305.89 766.9100000000001 1305.0500000000002 769.97 C 1305.0500000000002 770 1305.0200000000002 770.03 1304.9900000000002 770.1 C 1304.3800000000003 771.6800000000001 1303.8000000000002 773.32 1303.2800000000002 774.97 C 1303.2800000000002 775 1303.2800000000002 775 1303.2500000000002 775.03 C 1302.1200000000001 778.87 1301.2500000000002 782.86 1300.6700000000003 787.02 C 1300.1200000000003 790.92 1299.8600000000004 794.9499999999999 1299.8600000000004 799.11 C 1299.8600000000004 821 1307.6000000000004 839.9300000000001 1323.1000000000004 855.88 C 1338.6100000000004 871.84 1357.3100000000004 879.8 1379.2000000000003 879.8 C 1401.0900000000001 879.8 1419.8200000000002 871.8399999999999 1435.3300000000004 855.88 C 1450.8400000000004 839.92 1458.5700000000004 821 1458.5700000000004 799.11 C 1458.5700000000004 776.32 1450.6100000000004 757.62 1434.6200000000003 742.98 C 1418.6900000000003 728.41 1400.1900000000003 721.09 1379.2000000000003 721.09 C 1372.6900000000003 721.09 1366.4300000000003 721.8000000000001 1360.4000000000003 723.22 C 1356.8200000000004 724.03 1353.3400000000004 725.12 1349.9200000000003 726.44 C 1349.8900000000003 726.44 1349.8900000000003 726.47 1349.8600000000004 726.47 C 1347.9300000000003 727.21 1346.0200000000004 728.0500000000001 1344.1900000000003 728.98 C 1344.1600000000003 728.98 1344.1300000000003 729.01 1344.0900000000004 729.01 C 1340.2500000000005 730.3 1336.1300000000003 730.91 1331.7700000000004 730.85 C 1325.0000000000005 730.75 1318.5500000000004 728.95 1313.1000000000004 725.63 C 1313.0700000000004 725.63 1313.0700000000004 725.63 1313.0400000000004 725.6 C 1312.1100000000004 725.02 1311.2000000000005 724.41 1310.3600000000004 723.73 C 1305.7500000000005 720.44 1301.0100000000004 717.28 1296.2100000000003 714.19 C 1213.0300000000002 660.6400000000001 1101.3800000000003 629.6200000000001 981.9400000000003 629.6200000000001 L 981.9400000000003 645.75 z" stroke-linecap="round" />
</g>
</svg>