<?xml version="1.0" encoding="utf-8"?>
<!-- Generator: Adobe Illustrator 27.3.0, SVG Export Plug-In . SVG Version: 6.00 Build 0)  -->
<svg version="1.1" id="Layer_1" xmlns="http://www.w3.org/2000/svg" xmlns:xlink="http://www.w3.org/1999/xlink" x="0px" y="0px"
	 viewBox="0 0 2000 1901.96" enable-background="new 0 0 2000 1901.96" xml:space="preserve">
<g>
	<g>
		<path fill="#F16267" d="M764.04,1637.57H234.32V696.34c0-32.93-11.51-61.14-34.22-83.84c-22.71-22.71-50.92-34.22-83.84-34.22
			c-31.9,0-59.59,11.51-82.28,34.22c-22.71,22.7-34.22,50.91-34.22,83.84v1059.29c0,32.69,11.1,60.75,32.99,83.39
			c22.23,23.01,50.33,34.67,83.51,34.67h647.78c32.92,0,61.13-11.51,83.85-34.22c22.7-22.72,34.21-50.93,34.21-83.84
			c0-32.92-11.51-61.13-34.22-83.85C825.16,1649.08,796.95,1637.57,764.04,1637.57z"/>
		<path fill="#F16267" d="M1820.63,760.48C1820.63,760.48,1820.63,760.48,1820.63,760.48C1763.1,702.4,1694.47,657,1616.64,625.54
			c-77.59-31.36-164.61-47.26-258.63-47.26h-283.21c-32.66,0-60.72,11.11-83.41,33.01c-22.99,22.25-34.65,50.86-34.65,85.05v1059.29
			c0,32.92,11.51,61.13,34.22,83.85c22.72,22.7,50.92,34.21,83.84,34.21h283.21c94.03,0,181.04-15.9,258.63-47.26
			c77.83-31.47,146.46-76.87,204-134.94c57.54-58.11,102.37-127.57,133.26-206.47c30.75-78.52,46.34-165.94,46.34-259.82
			c0-93.86-15.6-181.04-46.37-259.12C1922.97,887.72,1878.14,818.54,1820.63,760.48z M1770.38,1225.2
			c0,84.07-17.96,159.47-53.38,224.1c-35.24,64.29-84.17,115.43-145.44,152c-61.19,36.53-133.04,55.05-213.55,55.05h-165.15V795.62
			h165.15c80.57,0,152.47,18.29,213.72,54.36c61.22,36.09,110.11,86.7,145.32,150.42
			C1752.44,1064.51,1770.38,1140.14,1770.38,1225.2z"/>
	</g>
	<g>
		<linearGradient id="SVGID_1_" gradientUnits="userSpaceOnUse" x1="80.9267" y1="537.1576" x2="874.2911" y2="-128.5542">
			<stop  offset="0.3379" style="stop-color:#77C47C"/>
			<stop  offset="0.3436" style="stop-color:#75BF83"/>
			<stop  offset="0.3541" style="stop-color:#6EB795"/>
			<stop  offset="0.3681" style="stop-color:#62AAB0"/>
			<stop  offset="0.3843" style="stop-color:#5098CC"/>
			<stop  offset="0.5101" style="stop-color:#4D96D1"/>
			<stop  offset="0.7219" style="stop-color:#4E96CF"/>
			<stop  offset="0.8211" style="stop-color:#5198CB"/>
		</linearGradient>
		<path fill="url(#SVGID_1_)" d="M1004.38,26.48c-241.88,0-472.87,60.71-645.08,166.09c-14.38,8.84-28.29,17.89-41.85,27.27
			l-0.07,0.07c-4.46,3.11-8.84,6.21-13.23,9.32c0,0,0,0.07-0.07,0.07c-11.41,6.35-24.03,9.45-37.94,9.25
			c-10.6-0.2-20.45-2.23-29.5-6.21c-0.34-0.13-0.67-0.27-1.01-0.47c-4.93-2.23-9.86-4.12-14.92-5.74
			c-15.86-5.2-32.61-7.9-50.29-8.17c-43.95-0.61-82.83,14.18-116.65,44.15C19.87,292.28,2.59,331.16,1.92,378.89
			C1.24,424.73,16.9,464.63,48.9,498.45c31.93,33.96,70.88,51.17,116.72,51.85c45.84,0.67,85.26-15.46,118.21-48.4
			s49.75-72.37,50.43-118.2c0.2-13.57-0.95-26.46-3.58-38.61c-1.35-6.41-2.97-12.62-5.06-18.7c-0.27-0.81-0.61-1.62-0.88-2.43
			c-2.63-7.9-3.85-16.47-3.71-26.4c0.34-22.55,8.44-40.91,24.44-55.15c2.3-2.03,4.59-3.85,6.95-5.6c2.23-1.42,4.39-2.9,6.62-4.32
			c0.14-0.07,0.27-0.2,0.41-0.27l13.77-8.71C540.42,119.93,766.75,60.23,1004.38,60.23V26.48z"/>
		
			<linearGradient id="SVGID_00000085237990970444013550000009587962511409961871_" gradientUnits="userSpaceOnUse" x1="1129.2086" y1="-127.4548" x2="1919.9978" y2="536.096">
			<stop  offset="0.0622" style="stop-color:#5098CC"/>
			<stop  offset="0.6285" style="stop-color:#4D96D1"/>
			<stop  offset="0.6464" style="stop-color:#B0BBA7"/>
			<stop  offset="0.6607" style="stop-color:#F9E077"/>
		</linearGradient>
		<path fill="url(#SVGID_00000085237990970444013550000009587962511409961871_)" d="M1000.08,60.19
			c243.9,0,471.33,62.92,639.9,171.6v0.2c0.74,0.41,1.48,0.81,2.23,1.28c0.74,0.47,1.42,0.95,2.16,1.42
			c1.01,0.67,2.09,1.35,3.1,2.09c3.11,2.23,6.08,4.79,9.05,7.49c15.59,14.65,23.22,33.28,22.89,55.76
			c-0.14,7.02-1.01,13.84-2.77,20.25c0,0.07-0.07,0.13-0.14,0.27c-1.28,3.31-2.5,6.75-3.58,10.19c0,0.07,0,0.07-0.07,0.14
			c-2.36,8.03-4.19,16.4-5.4,25.11c-1.15,8.17-1.69,16.61-1.69,25.32c0,45.84,16.2,85.46,48.67,118.88
			c32.47,33.42,71.63,50.09,117.46,50.09s85.06-16.67,117.53-50.09c32.47-33.42,48.67-73.04,48.67-118.88
			c0-47.73-16.67-86.88-50.16-117.53c-33.35-30.51-72.1-45.84-116.04-45.84c-13.64,0-26.73,1.49-39.36,4.46
			c-7.49,1.69-14.78,3.98-21.94,6.75c-0.07,0-0.07,0.07-0.13,0.07c-4.05,1.55-8.03,3.31-11.88,5.27c-0.07,0-0.14,0.07-0.2,0.07
			c-8.03,2.7-16.67,3.98-25.79,3.85c-14.18-0.2-27.68-3.98-39.09-10.94c-0.07,0-0.07,0-0.14-0.07c-1.96-1.22-3.85-2.5-5.6-3.92
			c-9.65-6.89-19.58-13.5-29.64-19.98C1483.97,91.38,1250.19,26.44,1000.08,26.44V60.19z"/>
	</g>
</g>
</svg>
